# AST/ASF file generated using VICON BodyLanguage
# -----------------------------------------------
:version 1.10
:name VICON
:units
  mass 1.0
  length 0.45
  angle deg
:documentation
   .ast/.asf automatically generated from VICON data using
   VICON BodyBuilder and BodyLanguage model FoxedUp or BRILLIANT.MOD
:root
   order TX TY TZ RX RY RZ
   axis XYZ
   position 0 0 0  
   orientation 0 -0 0 
:bonedata
  begin
     id 1 
     name lhipjoint
     direction 0.515797 -0.759363 0.396637 
     length 2.47888 
     axis 0 -0 0  XYZ
  end
  begin
     id 2 
     name lfemur
     direction 0.34202 -0.939693 0  
     length 6.81885  
     axis 0 -0 20  XYZ
    dof rx ry rz
    limits (-160.0 20.0)
           (-70.0 70.0)
           (-60.0 70.0)
  end
  begin
     id 3 
     name ltibia
     direction 0.342037 -0.939687 0   
     length 7.89258   
     axis 0 -0 20   XYZ
    dof rx
    limits (-10.0 170.0)
  end
  begin
     id 4 
     name lfoot
     direction 0.173497 -0.476678 0.861787   
     length 2.51543   
     axis -90 -1.13533e-015 20   XYZ
    dof rx rz
    limits (-45.0 90.0)
           (-70.0 20.0)
  end
  begin
     id 5 
     name ltoes
     direction 1.53564e-011 -4.21897e-011 1   
     length 1.21388   
     axis -90 -1.13533e-015 20   XYZ
    dof rx
    limits (-90.0 20.0)
  end
  begin
     id 6 
     name rhipjoint
     direction -0.489454 -0.772941 0.403729   
     length 2.43534  
     axis 0 -0 0  XYZ 
  end
  begin
     id 7 
     name rfemur
     direction -0.34202 -0.939693 0   
     length 7.10357   
     axis 0 -0 -20   XYZ
    dof rx ry rz
    limits (-160.0 20.0)
           (-70.0 70.0)
           (-70.0 60.0)
  end
  begin
     id 8 
     name rtibia
     direction -0.34202 -0.939693 0   
     length 9.16127   
     axis 0 -0 -20   XYZ
    dof rx
    limits (-10.0 170.0)
 end
 begin
     id 9 
     name rfoot
     direction -0.270974 -0.748671 0.605033   
     length 1.74894  
     axis -90 1.13533e-015 -20   XYZ
    dof rx rz
    limits (-45.0 90.0)
           (-20.0 70.0)
  end
  begin
     id 10 
     name rtoes
     direction -1.53557e-011 -4.21759e-011 1   
     length 0.787585   
     axis -90 1.13533e-015 -20   XYZ
    dof rx
    limits (-90.0 20.0)
  end
  begin
     id 11 
     name lowerback
     direction -0.0140249 0.999561 0.0260968   
     length 2.16963   
     axis 0 -0 0   XYZ
    dof rx ry rz
    limits (-20.0 45.0)
           (-30.0 30.0)
           (-30.0 30.0)
  end
  begin
     id 12 
     name upperback
     direction 0.00860018 0.999959 -0.002711   
     length 2.1726   
     axis 0 -0 0   XYZ
    dof rx ry rz
    limits (-20.0 45.0)
           (-30.0 30.0)
           (-30.0 30.0)
  end
  begin
     id 13 
     name thorax
     direction 0.015211 0.999782 -0.0143191   
     length 2.17061   
     axis 0 -0 0   XYZ
    dof rx ry rz
    limits (-20.0 45.0)
           (-30.0 30.0)
           (-30.0 30.0)
  end
  begin
     id 14 
     name lowerneck
     direction -0.0140143 0.999447 0.030145   
     length 2.26749   
     axis 0 -0 0   XYZ
    dof rx ry rz
    limits (-20.0 45.0)
           (-30.0 30.0)
           (-30.0 30.0)
  end
  begin
     id 15 
     name upperneck
     direction 0.118062 0.961438 -0.248392   
     length 2.22728   
     axis 0 -0 0   XYZ
    dof rx ry rz
    limits (-20.0 45.0)
           (-30.0 30.0)
           (-30.0 30.0)
  end
  begin
     id 16
     name head
     direction 0.0431885 0.9954 -0.085514  
     length 2.28786  
     axis 0 -0 0   XYZ
    dof rx ry rz
    limits (-20.0 45.0)
           (-30.0 30.0)
           (-30.0 30.0)
  end
  begin
     id 17 
     name lclavicle
     direction 0.912126 0.409548 0.0172323  
     length 4.31571  
     axis 0 -0 0   XYZ
    dof ry rz
    limits (-20.0 10.0)
           (0.0 20.0)
  end
  begin
     id 18 
     name lhumerus
     direction 1 -4.48977e-011 1.93091e-027   
     length 5.13658   
     axis 180 -30 -90   XYZ
    dof rx ry rz
    limits (-60.0 90.0)
           (-90.0 90.0)
           (-90.0 90.0)
  end
  begin
     id 19
     name lradius
     direction 1 -4.48916e-011 6.84018e-027   
     length 3.22473   
     axis 180 -30 -90   XYZ
    dof rx
    limits (-10.0 170.0)
  end
  begin
     id 20
     name lwrist
     direction 1 -4.48987e-011 7.01981e-027   
     length 1.61236   
     axis -4.37994e-015 90 90   XYZ
    dof ry
    limits (-180.0 0.0)
 end
  begin
     id 21 
     name lhand
     direction 1 -4.49037e-011 1.40335e-026   
     length 0.936406   
     axis -8.96029e-015 90 90   XYZ
    dof rx rz
    limits (-90.0 90.0)
           (-45.0 45.0)
  end
  begin
     id 22 
     name lfingers
     direction 1 -4.48886e-011 2.8104e-026   
     length 0.754955   
     axis -1.79203e-014 90 90   XYZ
    dof rx
    limits (0.0 90.0)
  end
  begin
     id 23
     name lthumb
     direction 0.707107 -6.34937e-011 0.707107   
     length 1.08397   
     axis -90 45 -4.48555e-014   XYZ
    dof rx rz
    limits (-45.0 45.0)
           (-45.0 45.0)
  end
  begin
     id 24 
     name rclavicle
     direction -0.947962 0.317997 0.0156638   
     length 4.86918  
     axis 0 -0 0   XYZ 
    dof ry rz
    limits (-10.0 20.0)
           (-20.0 0.0)
  end
  begin
     id 25 
     name rhumerus
     direction -1 -4.48951e-011 2.80534e-018  
     length 5.60911   
     axis 180 30 90   XYZ
    dof rx ry rz
    limits (-90.0 60.0)
           (-90.0 90.0)
           (-90.0 90.0)
  end
  begin
     id 26 
     name rradius
     direction -1 -4.4898e-011 2.11315e-027   
     length 3.38704   
     axis 180 30 90   XYZ
    dof rx
    limits (-10.0 170.0)
  end
  begin
     id 27 
     name rwrist
     direction -1 -4.48933e-011 7.02314e-027   
     length 1.69352   
     axis -4.37994e-015 -90 -90   XYZ
    dof ry
    limits (-180.0 0.0)
  end
  begin
     id 28
     name rhand
     direction -1 -4.48937e-011 1.40458e-026   
     length 0.755878   
     axis -8.96029e-015 -90 -90   XYZ
    dof rx rz
    limits (-90.0 90.0)
           (-45.0 45.0)
  end
  begin
     id 29
     name rfingers
     direction -1 -4.4901e-011 2.80737e-026   
     length 0.609409   
     axis -1.79203e-014 -90 -90   XYZ
    dof rx
    limits (0.0 90.0)
  end
  begin
     id 30
     name rthumb
     direction -0.707107 -6.34968e-011 0.707107   
     length 0.874992   
     axis -90 -45 4.48555e-014   XYZ
    dof rx rz
    limits (-45.0 45.0)
           (-45.0 45.0)
  end
:hierarchy
  begin
    root lhipjoint rhipjoint lowerback
    lhipjoint lfemur
    lfemur ltibia
    ltibia lfoot
    lfoot ltoes
    rhipjoint rfemur
    rfemur rtibia
    rtibia rfoot
    rfoot rtoes
    lowerback upperback
    upperback thorax
    thorax lowerneck lclavicle rclavicle
    lowerneck upperneck
    upperneck head
    lclavicle lhumerus
    lhumerus lradius
    lradius lwrist
    lwrist lhand lthumb
    lhand lfingers
    rclavicle rhumerus
    rhumerus rradius
    rradius rwrist
    rwrist rhand rthumb
    rhand rfingers
  end

#!OML:ASF C:\ViconDB\ViconDB\414\Spring2016\041811\Spring2016.ASF
:FULLY-SPECIFIED
:DEGREES
78
root 9.38739 18.5137 4.09804 -168.831 -3.53438 -181.44
lowerback 5.89062 -0.143448 -4.13171
upperback -1.65148 -0.535888 -0.177762
thorax -4.99006 -0.146909 2.19022
lowerneck -6.73245 -4.5498 -16.055
upperneck 10.8588 -7.88103 21.2896
head 5.84361 -3.66642 9.0581
rclavicle -3.32964e-015 -1.64991e-014
rhumerus 0.696835 17.5702 -57.416
rradius 99.1222
rwrist -0.310485
rhand -36.6551 -16.2298
rfingers 7.12502
rthumb -9.74187 -45.9845
lclavicle -3.32964e-015 -1.64991e-014
lhumerus 1.10702 -13.9219 44.903
lradius 87.467
lwrist 3.05648
lhand -36.3275 16.9516
lfingers 7.12502
lthumb -9.42582 46.7209
rfemur -5.69744 -17.105 15.6868
rtibia 34.8784
rfoot -17.8738 2.47418
rtoes -9.67429
lfemur -5.76335 -0.815943 -16.1883
ltibia 31.7437
lfoot -8.44838 9.18964
ltoes -26.0317
79
root 9.37051 18.8145 3.80282 -169.161 -2.99368 -181.177
lowerback 5.26019 -0.0439985 -4.14914
upperback -1.77563 -0.367539 -0.00041493
thorax -4.77212 -0.0625635 2.36375
lowerneck -6.86338 -4.47377 -15.9499
upperneck 11.0463 -7.78283 21.1518
head 5.89297 -3.61319 9.00128
rclavicle 4.67144e-015 6.4605e-015
rhumerus 1.69771 17.8562 -55.3876
rradius 100.703
rwrist -1.28986
rhand -36.4119 -15.7207
rfingers 7.12502
rthumb -9.50725 -45.4862
lclavicle 4.67144e-015 6.4605e-015
lhumerus 1.38512 -12.6271 43.999
lradius 88.7329
lwrist 2.82166
lhand -36.2222 16.8573
lfingers 7.12502
lthumb -9.3242 46.6311
rfemur -5.15094 -16.7656 15.7213
rtibia 34.2821
rfoot -21.4262 6.49391
rtoes -12.4795
lfemur -3.72031 -1.5041 -16.1347
ltibia 28.8955
lfoot -2.99765 11.6832
ltoes -23.0268
80
root 9.35719 19.1154 3.51495 -169.461 -2.57668 -180.865
lowerback 4.35555 0.0393137 -4.29114
upperback -1.55131 -0.197217 0.34626
thorax -4.03626 0.0135181 2.78288
lowerneck -7.57291 -4.48674 -15.9318
upperneck 11.3007 -7.69237 20.9612
head 6.0732 -3.52557 8.93545
rclavicle 1.11816e-015 4.77083e-015
rhumerus 2.96782 17.8712 -53.1844
rradius 102.315
rwrist -1.9225
rhand -36.2528 -15.43
rfingers 7.12502
rthumb -9.35369 -45.2024
lclavicle 1.11816e-015 4.77083e-015
lhumerus 1.92719 -11.081 43.7184
lradius 89.9109
lwrist 3.22921
lhand -36.9027 16.3268
lfingers 7.12502
lthumb -9.98075 46.0701
rfemur -4.82438 -16.5534 15.9411
rtibia 33.8203
rfoot -24.0601 10.3738
rtoes -14.2743
lfemur -1.83205 -1.95065 -15.9315
ltibia 25.9757
lfoot 2.5927 13.9531
ltoes -19.7318
81
root 9.34521 19.4169 3.23216 -169.726 -2.22058 -180.574
lowerback 3.6547 0.115277 -4.1942
upperback -1.39148 -0.049433 0.437203
thorax -3.48524 0.0715657 2.80887
lowerneck -8.25596 -4.55833 -15.5855
upperneck 11.611 -7.79954 20.8758
head 6.29756 -3.52967 8.82906
rclavicle 7.74018e-015 -1.02871e-014
rhumerus 3.61822 17.6666 -51.8216
rradius 103.927
rwrist -2.18492
rhand -36.2656 -15.286
rfingers 7.12502
rthumb -9.36607 -45.0579
lclavicle 7.74018e-015 -1.02871e-014
lhumerus 2.31712 -9.78053 43.1743
lradius 91.3094
lwrist 4.07158
lhand -37.2514 16.1827
lfingers 7.12502
lthumb -10.3172 45.9096
rfemur -4.6075 -16.1857 16.2529
rtibia 33.443
rfoot -25.5132 13.9531
rtoes -15.9091
lfemur -0.0887176 -2.39693 -15.7381
ltibia 23.1533
lfoot 8.01935 16.1515
ltoes -15.1523
82
root 9.33717 19.7073 2.95481 -169.802 -1.96961 -180.293
lowerback 3.29975 0.224024 -4.02031
upperback -1.55896 0.113385 0.420543
thorax -3.47042 0.149598 2.68305
lowerneck -8.76169 -4.5301 -15.1028
upperneck 12.1672 -7.90303 20.8516
head 6.56023 -3.54146 8.72988
rclavicle -3.59055e-015 1.28216e-014
rhumerus 3.49916 17.4791 -50.8708
rradius 105.717
rwrist -3.21795
rhand -36.2752 -15.6512
rfingers 7.12502
rthumb -9.37537 -45.4227
lclavicle -3.59055e-015 1.28216e-014
lhumerus 2.49122 -9.17223 42.7154
lradius 92.5972
lwrist 4.71355
lhand -37.8089 16.5712
lfingers 7.12502
lthumb -10.8549 46.2706
rfemur -4.65556 -15.8116 16.6853
rtibia 33.131
rfoot -26.4398 17.6565
rtoes -17.0743
lfemur 1.20275 -2.79806 -15.4972
ltibia 20.7615
lfoot 12.5895 17.9404
ltoes -9.91068
83
root 9.32806 19.9735 2.69285 -169.803 -1.82767 -180.117
lowerback 3.25523 0.255267 -4.10161
upperback -1.87906 0.148173 0.604841
thorax -3.78171 0.180879 2.91777
lowerneck -9.2028 -4.57776 -14.9498
upperneck 12.8287 -8.02414 20.6012
head 6.85129 -3.57821 8.61225
rclavicle -1.3418e-015 5.36719e-015
rhumerus 3.30019 17.7167 -49.7633
rradius 107.395
rwrist -4.47711
rhand -36.2983 -15.9929
rfingers 7.12502
rthumb -9.39767 -45.7634
lclavicle -1.3418e-015 5.36719e-015
lhumerus 2.1164 -8.43753 43.0492
lradius 93.8492
lwrist 5.06339
lhand -38.0877 16.8045
lfingers 7.12502
lthumb -11.1238 46.4896
rfemur -4.71952 -15.7348 16.9734
rtibia 32.797
rfoot -27.0627 20.0631
rtoes -18.3071
lfemur 1.90632 -2.99969 -15.3274
ltibia 19.1965
lfoot 15.9803 18.2511
ltoes -4.42633
84
root 9.31892 20.1978 2.45012 -169.742 -1.73756 -180.099
lowerback 2.97675 0.275299 -4.03301
upperback -2.14177 0.171373 0.45657
thorax -3.89794 0.191408 2.72435
lowerneck -9.2934 -4.40508 -14.2807
upperneck 13.1728 -7.97032 20.5052
head 6.93152 -3.53534 8.46824
rclavicle 1.2424e-016 1.09332e-015
rhumerus 2.68944 17.6869 -49.4647
rradius 108.904
rwrist -5.81902
rhand -36.1596 -16.3086
rfingers 7.12502
rthumb -9.26378 -46.0851
lclavicle 1.2424e-016 1.09332e-015
lhumerus 1.94217 -8.06591 43.0023
lradius 95.0206
lwrist 5.82401
lhand -38.3997 16.9634
lfingers 7.12502
lthumb -11.4248 46.6321
rfemur -4.69825 -15.6277 17.0354
rtibia 32.4316
rfoot -28.2761 20.1381
rtoes -18.97
lfemur 1.95251 -3.12283 -15.3531
ltibia 18.6916
lfoot 17.2281 17.2119
ltoes -1.85624
85
root 9.30909 20.3883 2.22346 -169.701 -1.75028 -180.075
lowerback 2.70345 0.174087 -3.99296
upperback -2.16201 0.0460944 0.425723
thorax -3.75414 0.123764 2.67756
lowerneck -9.86971 -4.38076 -14.0684
upperneck 13.5727 -7.98715 20.4824
head 7.15726 -3.50334 8.42599
rclavicle 4.91992e-015 -5.46658e-015
rhumerus 2.38895 17.4577 -49.527
rradius 110.02
rwrist -6.77579
rhand -35.7386 -16.3853
rfingers 7.12502
rthumb -8.85758 -46.1794
lclavicle 4.91992e-015 -5.46658e-015
lhumerus 1.67552 -7.34853 43.1262
lradius 96.0775
lwrist 6.32239
lhand -38.4787 16.8265
lfingers 7.12502
lthumb -11.5009 46.491
rfemur -4.55863 -15.5649 17.0491
rtibia 32.0239
rfoot -29.0369 18.6506
rtoes -19.1638
lfemur 1.40695 -2.76886 -15.2853
ltibia 19.1157
lfoot 16.6939 14.9105
ltoes -3.3207
86
root 9.29924 20.5558 2.00808 -169.721 -1.81592 -180.048
lowerback 2.60348 0.0771097 -4.00254
upperback -2.21533 -0.0810077 0.469371
thorax -3.74328 0.0610993 2.73553
lowerneck -10.1155 -4.28511 -13.9604
upperneck 13.8055 -7.88859 20.461
head 7.25119 -3.43917 8.41521
rclavicle -2.39784e-015 -2.08724e-015
rhumerus 1.95043 17.437 -49.547
rradius 111.011
rwrist -7.68258
rhand -35.1562 -16.2837
rfingers 7.12502
rthumb -8.29548 -46.1008
lclavicle -2.39784e-015 -2.08724e-015
lhumerus 1.24503 -6.79956 43.5922
lradius 97.063
lwrist 6.5364
lhand -38.5253 16.9632
lfingers 7.12502
lthumb -11.5459 46.6252
rfemur -4.42354 -15.9436 17.02
rtibia 31.6236
rfoot -29.6118 16.5311
rtoes -19.195
lfemur 0.496378 -2.14329 -15.1711
ltibia 20.1066
lfoot 15.8939 12.6416
ltoes -4.27976
87
root 9.29295 20.7118 1.79708 -169.876 -1.91742 -180.258
lowerback 2.78086 -0.0113483 -4.29708
upperback -2.24736 -0.224147 0.407643
thorax -3.86656 -0.000327287 2.8465
lowerneck -10.3097 -4.19076 -13.6876
upperneck 14.0333 -7.83006 20.4061
head 7.33419 -3.39381 8.35709
rclavicle -6.5102e-015 -2.68359e-015
rhumerus 1.13649 17.3399 -50.004
rradius 111.849
rwrist -8.1331
rhand -34.7198 -16.1096
rfingers 7.12502
rthumb -7.87436 -45.9429
lclavicle -6.5102e-015 -2.68359e-015
lhumerus 0.733084 -6.42524 44.1495
lradius 97.9336
lwrist 6.49104
lhand -38.3922 16.8708
lfingers 7.12502
lthumb -11.4176 46.5399
rfemur -4.25192 -16.9189 16.6915
rtibia 31.2613
rfoot -30.6219 14.5338
rtoes -19.3685
lfemur -0.380934 -1.53292 -15.3082
ltibia 21.1132
lfoot 15.2466 11.0261
ltoes -3.7495
88
root 9.28199 20.8572 1.59136 -170.069 -2.05048 -180.079
lowerback 3.09358 -0.0488499 -4.07861
upperback -2.26466 -0.277269 0.399092
thorax -4.05742 -0.027675 2.7199
lowerneck -10.4008 -4.14922 -13.5739
upperneck 14.1076 -7.85329 20.565
head 7.3819 -3.39329 8.39336
rclavicle -6.41081e-015 -3.77691e-015
rhumerus 0.124418 17.2063 -50.5858
rradius 112.501
rwrist -8.16286
rhand -34.4412 -15.9825
rfingers 7.12502
rthumb -7.60546 -45.8257
lclavicle -6.41081e-015 -3.77691e-015
lhumerus 0.18164 -6.25799 44.9934
lradius 98.734
lwrist 5.93285
lhand -38.6228 17.2507
lfingers 7.12502
lthumb -11.6399 46.9074
rfemur -4.25965 -18.1144 16.8324
rtibia 30.9639
rfoot -31.6168 13.0104
rtoes -19.1466
lfemur -1.16001 -0.96702 -15.0328
ltibia 21.7819
lfoot 14.8077 9.99198
ltoes -3.78008
89
root 9.27257 20.9978 1.38494 -170.263 -2.13692 -180.049
lowerback 3.40385 -0.102257 -4.07354
upperback -2.20167 -0.358542 0.375292
thorax -4.16156 -0.0658452 2.6995
lowerneck -10.6272 -4.11848 -13.4331
upperneck 14.2331 -7.84018 20.5602
head 7.45592 -3.36849 8.36961
rclavicle -6.21202e-016 -5.96354e-015
rhumerus -0.98272 17.0064 -51.4818
rradius 112.902
rwrist -7.59156
rhand -34.0382 -15.5617
rfingers 7.12502
rthumb -7.21643 -45.4186
lclavicle -6.21202e-016 -5.96354e-015
lhumerus -0.454914 -5.90644 45.9351
lradius 99.2027
lwrist 5.11695
lhand -38.3571 16.6282
lfingers 7.12502
lthumb -11.3837 46.2992
rfemur -4.41368 -19.0942 16.9215
rtibia 30.6588
rfoot -32.1309 12.1993
rtoes -18.4642
lfemur -1.74823 -0.481478 -14.9229
ltibia 21.9497
lfoot 14.6498 9.32665
ltoes -3.95841
